<svg version="1.1" id="Layer_1" xmlns="http://www.w3.org/2000/svg" xmlns:xlink="http://www.w3.org/1999/xlink" x="0px" y="0px"
	 width="100%" viewBox="0 0 512 512" enable-background="new 0 0 512 512" xml:space="preserve">
<path fill="#76C2AF" opacity="1.000000" stroke="none" 
	d="
M225.000000,1.000001 
	C246.020889,1.000000 267.041779,1.000000 288.212402,1.354261 
	C293.724823,2.798665 299.065887,4.012260 304.453888,4.958370 
	C333.563446,10.069879 360.835266,20.311314 386.260559,35.189781 
	C413.588806,51.181843 437.036530,71.794136 457.022369,96.426178 
	C474.645416,118.146118 488.254089,142.117798 497.859192,168.286453 
	C504.357178,185.989990 509.356201,204.163834 511.087158,223.080627 
	C511.150513,223.772980 512.336975,224.362534 513.000000,225.000000 
	C513.000000,246.020889 513.000000,267.041779 512.647827,288.209045 
	C511.877136,289.035828 511.202820,289.673309 511.080231,290.403442 
	C510.000854,296.830200 509.213531,303.310974 507.975861,309.705322 
	C502.677277,337.080444 492.658722,362.743225 478.577087,386.707794 
	C463.897095,411.690735 445.263519,433.458038 423.230865,452.372040 
	C409.307098,464.324951 394.320892,474.684814 378.181885,483.260040 
	C350.831238,497.792419 321.908661,507.679169 290.953094,511.083771 
	C290.240417,511.162140 289.648315,512.336731 289.000000,513.000000 
	C267.979095,513.000000 246.958206,513.000000 225.788635,512.647095 
	C224.793518,511.866425 223.988129,511.203491 223.094238,511.047424 
	C215.078842,509.647827 206.968719,508.694366 199.036118,506.934906 
	C173.805420,501.338776 149.961029,491.905212 127.719841,478.857025 
	C102.600861,464.120483 80.680321,445.423676 61.654339,423.271179 
	C49.478340,409.094269 38.844059,393.859375 30.235815,377.389526 
	C16.057268,350.262146 6.199988,321.613678 2.916086,290.955566 
	C2.839809,290.243469 1.663314,289.649200 1.000003,289.000000 
	C1.000000,267.645782 1.000000,246.291550 1.340555,224.800186 
	C3.117441,217.878128 4.635026,211.109207 5.975834,204.305466 
	C11.367342,176.946976 21.327837,151.267120 35.401283,127.307320 
	C50.065735,102.341347 68.694313,80.582596 90.714836,61.675236 
	C104.778961,49.599422 119.902435,39.082649 136.212418,30.465342 
	C163.440720,16.079409 192.272964,6.345613 223.051239,2.916236 
	C223.763153,2.836911 224.353134,1.663228 225.000000,1.000001 
M224.859344,320.936707 
	C234.801010,320.958923 244.743530,320.910797 254.684006,321.031219 
	C260.159027,321.097534 264.538971,319.169189 268.385071,315.227875 
	C275.089172,308.357880 282.076172,301.763916 289.084076,295.847870 
	C289.328217,298.573517 289.572327,301.299133 289.449280,304.729675 
	C289.650208,309.014191 289.497131,313.349884 290.107758,317.575195 
	C295.308380,353.563324 328.021973,383.362885 363.915497,384.966400 
	C406.588348,386.872742 441.652161,358.117737 448.061188,315.783234 
	C448.642273,311.944794 448.164307,307.945984 448.174194,303.159821 
	C447.951782,293.378967 449.016052,283.364258 447.288116,273.857025 
	C439.040375,228.476791 391.659973,197.466019 343.292419,212.621201 
	C331.714783,190.157715 320.087402,167.719650 308.594421,145.212936 
	C305.708588,139.561539 301.463165,136.858215 295.062683,136.949249 
	C283.087616,137.119553 271.107269,137.092987 259.131317,136.956406 
	C253.493439,136.892120 248.921906,138.560959 246.296829,143.776764 
	C243.629837,149.075897 245.216415,153.765808 248.216156,158.202789 
	C247.530029,158.877579 246.595856,159.430817 246.196411,160.246078 
	C242.499100,167.792358 248.285110,176.654724 257.337250,176.919937 
	C266.619141,177.191864 275.916779,177.113647 285.203217,176.946823 
	C288.667297,176.884583 290.656982,178.157120 292.161438,181.266220 
	C296.640472,190.522736 301.375824,199.655243 305.078735,208.952240 
	C286.600739,208.967056 268.121460,208.873657 249.645859,209.089951 
	C246.045395,209.132080 244.361084,207.768265 242.858215,204.741089 
	C238.345963,195.652054 233.410736,186.773193 228.889008,177.688644 
	C225.890472,171.664307 221.456451,168.786957 214.609146,168.929657 
	C202.794891,169.175873 190.970657,169.094452 179.152893,168.956070 
	C173.513336,168.890060 168.933502,170.547821 166.301590,175.767075 
	C163.628006,181.068985 165.214859,185.761932 168.215576,190.203720 
	C167.528809,190.881210 166.593475,191.437286 166.194000,192.255096 
	C162.495834,199.826096 168.318604,208.643997 177.410461,208.927307 
	C185.552277,209.181000 193.721161,209.282181 201.852676,208.904037 
	C207.440170,208.644196 211.607178,209.667389 213.375153,215.652374 
	C213.760284,216.956161 215.149170,217.963425 215.727432,219.674988 
	C210.584015,223.794159 205.440582,227.913315 199.977127,231.413483 
	C198.168839,229.700943 196.470184,227.852142 194.536133,226.295914 
	C152.755997,192.678131 88.868851,210.444077 70.148659,260.773376 
	C64.907753,274.863586 64.164116,289.298187 65.448990,304.729889 
	C65.407417,307.538971 65.036316,310.388702 65.376907,313.150635 
	C67.878098,333.433136 76.452049,350.562683 91.739632,364.364502 
	C105.928947,377.174835 122.562317,384.126923 141.471970,384.886078 
	C168.414902,385.967651 190.482788,375.337555 207.546173,354.706970 
	C215.591400,344.979858 221.056854,333.745728 223.497696,320.979309 
	C223.497696,320.979309 223.912674,320.878540 224.859344,320.936707 
z"/>
<path fill="#000000" opacity="1.000000" stroke="none" 
	d="
M513.000000,224.531342 
	C512.336975,224.362534 511.150513,223.772980 511.087158,223.080627 
	C509.356201,204.163834 504.357178,185.989990 497.859192,168.286453 
	C488.254089,142.117798 474.645416,118.146118 457.022369,96.426178 
	C437.036530,71.794136 413.588806,51.181843 386.260559,35.189781 
	C360.835266,20.311314 333.563446,10.069879 304.453888,4.958370 
	C299.065887,4.012260 293.724823,2.798665 288.681030,1.354261 
	C363.593719,1.000000 438.187408,1.000000 513.000000,1.000000 
	C513.000000,75.354088 513.000000,149.708389 513.000000,224.531342 
z"/>
<path fill="#000000" opacity="1.000000" stroke="none" 
	d="
M1.000003,289.468658 
	C1.663314,289.649200 2.839809,290.243469 2.916086,290.955566 
	C6.199988,321.613678 16.057268,350.262146 30.235815,377.389526 
	C38.844059,393.859375 49.478340,409.094269 61.654339,423.271179 
	C80.680321,445.423676 102.600861,464.120483 127.719841,478.857025 
	C149.961029,491.905212 173.805420,501.338776 199.036118,506.934906 
	C206.968719,508.694366 215.078842,509.647827 223.094238,511.047424 
	C223.988129,511.203491 224.793518,511.866425 225.319977,512.647095 
	C150.406296,513.000000 75.812599,513.000000 1.000000,513.000000 
	C1.000000,438.645905 1.000000,364.291626 1.000003,289.468658 
z"/>
<path fill="#000000" opacity="1.000000" stroke="none" 
	d="
M289.468628,513.000000 
	C289.648315,512.336731 290.240417,511.162140 290.953094,511.083771 
	C321.908661,507.679169 350.831238,497.792419 378.181885,483.260040 
	C394.320892,474.684814 409.307098,464.324951 423.230865,452.372040 
	C445.263519,433.458038 463.897095,411.690735 478.577087,386.707794 
	C492.658722,362.743225 502.677277,337.080444 507.975861,309.705322 
	C509.213531,303.310974 510.000854,296.830200 511.080231,290.403442 
	C511.202820,289.673309 511.877136,289.035828 512.647827,288.677673 
	C513.000000,363.593719 513.000000,438.187408 513.000000,513.000000 
	C438.645905,513.000000 364.291626,513.000000 289.468628,513.000000 
z"/>
<path fill="#000000" opacity="1.000000" stroke="none" 
	d="
M224.531342,1.000001 
	C224.353134,1.663228 223.763153,2.836911 223.051239,2.916236 
	C192.272964,6.345613 163.440720,16.079409 136.212418,30.465342 
	C119.902435,39.082649 104.778961,49.599422 90.714836,61.675236 
	C68.694313,80.582596 50.065735,102.341347 35.401283,127.307320 
	C21.327837,151.267120 11.367342,176.946976 5.975834,204.305466 
	C4.635026,211.109207 3.117441,217.878128 1.340555,224.331528 
	C1.000000,149.739456 1.000000,75.478920 1.000000,1.000000 
	C75.354088,1.000000 149.708389,1.000000 224.531342,1.000001 
z"/>
<path fill="#FEFFFF" opacity="1.000000" stroke="none" 
	d="
M168.889648,189.994400 
	C165.214859,185.761932 163.628006,181.068985 166.301590,175.767075 
	C168.933502,170.547821 173.513336,168.890060 179.152893,168.956070 
	C190.970657,169.094452 202.794891,169.175873 214.609146,168.929657 
	C221.456451,168.786957 225.890472,171.664307 228.889008,177.688644 
	C233.410736,186.773193 238.345963,195.652054 242.858215,204.741089 
	C244.361084,207.768265 246.045395,209.132080 249.645859,209.089951 
	C268.121460,208.873657 286.600739,208.967056 305.972717,208.957855 
	C309.109131,208.963486 311.351562,208.963486 314.332336,208.963486 
	C306.199799,193.141129 298.518951,178.047241 290.597260,163.080826 
	C289.986877,161.927628 287.692566,161.120911 286.161682,161.089417 
	C277.173462,160.904480 268.167023,161.270462 259.193787,160.859879 
	C255.722946,160.701080 252.322891,158.995010 248.890594,157.993835 
	C245.216415,153.765808 243.629837,149.075897 246.296829,143.776764 
	C248.921906,138.560959 253.493439,136.892120 259.131317,136.956406 
	C271.107269,137.092987 283.087616,137.119553 295.062683,136.949249 
	C301.463165,136.858215 305.708588,139.561539 308.594421,145.212936 
	C320.087402,167.719650 331.714783,190.157715 343.604767,213.201584 
	C347.623230,220.841949 351.329346,227.901932 355.080994,235.313309 
	C358.820679,242.766006 362.514801,249.867310 366.300812,257.301514 
	C370.488007,265.604340 374.456085,273.643097 378.720062,281.521698 
	C381.954041,287.497192 381.724091,292.901398 376.782837,298.170441 
	C368.362946,303.111725 362.014221,301.327271 357.592621,293.007355 
	C352.796143,283.981964 348.029755,274.940552 343.169373,265.553253 
	C339.747742,258.792938 336.407043,252.385498 333.026672,245.623322 
	C331.813202,242.968460 330.639404,240.668350 329.739410,238.904785 
	C316.270081,251.936935 302.996613,264.779541 289.464844,277.745789 
	C289.057159,278.204987 288.907806,278.540619 288.769836,278.870850 
	C288.781219,278.865509 288.750641,278.842102 288.432251,278.934662 
	C280.910858,286.163208 273.976532,293.605682 266.366089,300.276886 
	C263.517395,302.774017 259.164093,304.541199 255.375641,304.789032 
	C245.276611,305.449738 235.111771,305.104431 224.645264,305.092407 
	C223.875977,305.065765 223.434509,305.105743 222.527039,305.083069 
	C214.101730,305.085999 206.142410,305.151550 197.709412,305.133240 
	C180.528305,305.033325 163.817734,305.181427 147.115967,304.865509 
	C143.690186,304.800690 140.297226,302.999237 136.720901,301.697540 
	C131.295441,294.590271 131.746201,288.552826 138.250168,283.091583 
	C149.460770,273.678253 160.798096,264.415863 172.386200,254.945160 
	C176.134140,251.937271 179.578110,249.074387 183.324722,246.050613 
	C189.183960,241.270645 194.740570,236.651566 200.297165,232.032486 
	C205.440582,227.913315 210.584015,223.794159 216.205017,219.242493 
	C218.157181,217.558655 219.631760,216.307312 221.168228,215.003433 
	C217.833603,208.569153 214.565491,202.623627 211.663681,196.504410 
	C210.313095,193.656387 208.513428,192.860519 205.489334,192.928802 
	C196.708786,193.127090 187.907791,193.274902 179.142288,192.861038 
	C175.687317,192.697906 172.305038,190.995743 168.889648,189.994400 
M195.872620,280.958435 
	C197.278030,280.899384 198.683441,280.840332 201.001083,280.951874 
	C208.708679,280.932922 216.416275,280.914001 225.039902,281.001862 
	C232.025360,280.950104 239.010803,280.898346 246.838531,280.969635 
	C248.332550,280.948120 250.158142,281.446045 251.229385,280.762207 
	C252.349197,280.047394 253.710648,277.710052 253.310623,276.913696 
	C246.626038,263.605560 239.681534,250.428024 232.521042,236.696198 
	C226.672440,241.732910 221.285660,246.371887 215.266418,251.197189 
	C209.169357,256.197388 203.072296,261.197601 196.380035,266.407135 
	C194.591248,267.973053 192.802460,269.538971 190.387695,271.326904 
	C186.859924,274.293274 183.332169,277.259674 179.091049,280.825897 
	C185.216888,280.825897 190.128479,280.825897 195.872620,280.958435 
M266.652405,250.074371 
	C268.394012,253.489471 270.135620,256.904572 272.245850,261.042480 
	C276.474823,256.597473 279.957855,252.936554 284.000824,248.946609 
	C289.028717,244.003143 294.056610,239.059677 299.936554,233.278442 
	C285.186310,233.278442 271.862152,233.278442 257.758423,233.278442 
	C260.812653,238.956085 263.618134,244.171371 266.652405,250.074371 
z"/>
<path fill="#4F5E73" opacity="1.000000" stroke="none" 
	d="
M355.035431,234.961914 
	C351.329346,227.901932 347.623230,220.841949 343.862671,213.424957 
	C391.659973,197.466019 439.040375,228.476791 447.288116,273.857025 
	C449.016052,283.364258 447.951782,293.378967 447.933838,303.877655 
	C443.224091,323.934540 433.461121,340.100098 417.812225,352.290741 
	C379.869110,381.848907 324.286499,371.024536 300.226593,329.229797 
	C295.730164,321.418976 293.235138,312.456024 289.816467,304.024780 
	C289.572327,301.299133 289.328217,298.573517 289.046173,295.105469 
	C289.039368,293.901886 289.070496,293.440765 289.426300,292.901947 
	C296.692078,286.195679 303.588531,279.519196 310.607300,272.973877 
	C312.250061,271.441925 314.307129,270.354279 316.116669,269.455292 
	C315.538727,271.940887 314.941101,274.017731 314.508911,276.128448 
	C311.272186,291.934631 313.103668,306.788849 323.032471,320.427032 
	C327.635529,325.384857 331.507202,330.825256 336.620789,334.569611 
	C361.899567,353.079498 400.014679,345.870636 415.380859,319.906677 
	C428.470184,301.406036 428.028809,275.145142 414.582550,256.368042 
	C401.059052,237.482956 376.611420,228.694489 355.035431,234.961914 
z"/>
<path fill="#4F5E73" opacity="1.000000" stroke="none" 
	d="
M200.137146,231.722992 
	C194.740570,236.651566 189.183960,241.270645 182.967773,245.994385 
	C180.609879,245.104492 178.837830,244.216461 177.224228,243.099548 
	C146.723541,221.987900 104.609001,235.173950 92.412895,270.162292 
	C90.048950,276.944031 90.526909,284.716339 89.690224,292.483917 
	C90.521629,316.038818 106.336578,336.060699 129.008331,342.717957 
	C151.856735,349.427094 176.507629,341.094116 190.341248,321.879578 
	C191.026184,321.126038 191.496048,320.550598 192.321152,320.192993 
	C201.125946,320.613129 209.575516,320.815491 217.943939,321.365234 
	C212.594452,334.120605 204.174377,344.222076 193.694717,352.339935 
	C155.633636,381.822998 100.258087,370.979553 76.216187,329.211945 
	C71.723518,321.406860 69.231438,312.450195 65.816116,304.024994 
	C64.164116,289.298187 64.907753,274.863586 70.148659,260.773376 
	C88.868851,210.444077 152.755997,192.678131 194.536133,226.295914 
	C196.470184,227.852142 198.168839,229.700943 200.137146,231.722992 
z"/>
<path fill="#65A192" opacity="1.000000" stroke="none" 
	d="
M289.632874,304.377228 
	C293.235138,312.456024 295.730164,321.418976 300.226593,329.229797 
	C324.286499,371.024536 379.869110,381.848907 417.812225,352.290741 
	C433.461121,340.100098 443.224091,323.934540 447.935852,304.308594 
	C448.164307,307.945984 448.642273,311.944794 448.061188,315.783234 
	C441.652161,358.117737 406.588348,386.872742 363.915497,384.966400 
	C328.021973,383.362885 295.308380,353.563324 290.107758,317.575195 
	C289.497131,313.349884 289.650208,309.014191 289.632874,304.377228 
z"/>
<path fill="#65A192" opacity="1.000000" stroke="none" 
	d="
M65.632553,304.377441 
	C69.231438,312.450195 71.723518,321.406860 76.216187,329.211945 
	C100.258087,370.979553 155.633636,381.822998 193.694717,352.339935 
	C204.174377,344.222076 212.594452,334.120605 218.135651,321.310730 
	C218.408508,320.908875 218.794098,320.807495 219.221039,320.849670 
	C220.793228,320.954895 221.938461,321.017944 223.083694,321.080994 
	C221.056854,333.745728 215.591400,344.979858 207.546173,354.706970 
	C190.482788,375.337555 168.414902,385.967651 141.471970,384.886078 
	C122.562317,384.126923 105.928947,377.174835 91.739632,364.364502 
	C76.452049,350.562683 67.878098,333.433136 65.376907,313.150635 
	C65.036316,310.388702 65.407417,307.538971 65.632553,304.377441 
z"/>
<path fill="#67A293" opacity="1.000000" stroke="none" 
	d="
M289.101624,292.979614 
	C289.070496,293.440765 289.039368,293.901886 288.976440,294.708618 
	C282.076172,301.763916 275.089172,308.357880 268.385071,315.227875 
	C264.538971,319.169189 260.159027,321.097534 254.684006,321.031219 
	C244.743530,320.910797 234.801010,320.958923 224.406372,320.477905 
	C224.293274,315.065765 224.633179,310.112427 224.973083,305.159058 
	C235.111771,305.104431 245.276611,305.449738 255.375641,304.789032 
	C259.164093,304.541199 263.517395,302.774017 266.366089,300.276886 
	C273.976532,293.605682 280.910858,286.163208 288.539093,279.400696 
	C289.010071,284.175995 289.055847,288.577820 289.101624,292.979614 
z"/>
<path fill="#66A293" opacity="1.000000" stroke="none" 
	d="
M248.553375,158.098312 
	C252.322891,158.995010 255.722946,160.701080 259.193787,160.859879 
	C268.167023,161.270462 277.173462,160.904480 286.161682,161.089417 
	C287.692566,161.120911 289.986877,161.927628 290.597260,163.080826 
	C298.518951,178.047241 306.199799,193.141129 314.332336,208.963486 
	C311.351562,208.963486 309.109131,208.963486 306.438843,208.899841 
	C301.375824,199.655243 296.640472,190.522736 292.161438,181.266220 
	C290.656982,178.157120 288.667297,176.884583 285.203217,176.946823 
	C275.916779,177.113647 266.619141,177.191864 257.337250,176.919937 
	C248.285110,176.654724 242.499100,167.792358 246.196411,160.246078 
	C246.595856,159.430817 247.530029,158.877579 248.553375,158.098312 
z"/>
<path fill="#66A293" opacity="1.000000" stroke="none" 
	d="
M168.552612,190.099060 
	C172.305038,190.995743 175.687317,192.697906 179.142288,192.861038 
	C187.907791,193.274902 196.708786,193.127090 205.489334,192.928802 
	C208.513428,192.860519 210.313095,193.656387 211.663681,196.504410 
	C214.565491,202.623627 217.833603,208.569153 221.168228,215.003433 
	C219.631760,216.307312 218.157181,217.558655 216.379181,218.958649 
	C215.149170,217.963425 213.760284,216.956161 213.375153,215.652374 
	C211.607178,209.667389 207.440170,208.644196 201.852676,208.904037 
	C193.721161,209.282181 185.552277,209.181000 177.410461,208.927307 
	C168.318604,208.643997 162.495834,199.826096 166.194000,192.255096 
	C166.593475,191.437286 167.528809,190.881210 168.552612,190.099060 
z"/>
<path fill="#5A887C" opacity="1.000000" stroke="none" 
	d="
M224.645264,305.092407 
	C224.633179,310.112427 224.293274,315.065765 223.933029,320.448853 
	C223.912674,320.878540 223.497696,320.979309 223.290695,321.030151 
	C221.938461,321.017944 220.793228,320.954895 219.300110,320.484192 
	C220.299164,315.099579 221.646103,310.122650 222.993042,305.145721 
	C223.434509,305.105743 223.875977,305.065765 224.645264,305.092407 
z"/>
<path fill="#76C2AF" opacity="1.000000" stroke="none" 
	d="
M415.114746,320.119446 
	C400.014679,345.870636 361.899567,353.079498 336.620789,334.569611 
	C331.507202,330.825256 327.635529,325.384857 323.039337,320.011047 
	C322.453705,312.100067 321.196167,304.837494 321.773773,297.723969 
	C322.709290,286.203247 329.200684,277.113678 337.250061,268.978882 
	C337.496613,268.998901 337.989136,269.045258 338.061127,269.395996 
	C344.579651,282.718903 350.963470,295.723053 357.533997,308.632111 
	C358.639954,310.805023 360.295105,312.865814 362.143158,314.460907 
	C366.887817,318.556000 374.215820,317.318573 378.503937,311.973572 
	C382.208710,307.355743 381.645355,301.723114 377.105713,297.992798 
	C381.724091,292.901398 381.954041,287.497192 378.720062,281.521698 
	C374.456085,273.643097 370.488007,265.604340 366.741394,257.301270 
	C393.353027,257.255096 412.211975,272.933807 416.268158,298.973053 
	C417.331055,305.796417 415.575775,313.058716 415.114746,320.119446 
z"/>
<path fill="#76C2AF" opacity="1.000000" stroke="none" 
	d="
M190.126175,322.057678 
	C176.507629,341.094116 151.856735,349.427094 129.008331,342.717957 
	C106.336578,336.060699 90.521629,316.038818 89.959412,292.219666 
	C90.587112,290.581299 90.990822,289.674896 91.289536,288.735107 
	C99.967194,261.433838 125.688423,245.370087 153.981735,249.986938 
	C160.129120,250.990051 166.054581,253.353333 172.082245,255.090149 
	C160.798096,264.415863 149.460770,273.678253 138.250168,283.091583 
	C131.746201,288.552826 131.295441,294.590271 136.399811,301.825043 
	C132.488037,305.433563 132.310867,309.447784 134.124954,313.523804 
	C136.260193,318.321411 140.178177,320.936707 145.519470,320.961823 
	C158.303543,321.021973 171.088394,320.945953 183.871948,321.047363 
	C185.959244,321.063904 188.041565,321.705170 190.126175,322.057678 
z"/>
<path fill="#65A192" opacity="1.000000" stroke="none" 
	d="
M415.380859,319.906677 
	C415.575775,313.058716 417.331055,305.796417 416.268158,298.973053 
	C412.211975,272.933807 393.353027,257.255096 366.649475,256.968384 
	C362.514801,249.867310 358.820679,242.766006 355.080994,235.313309 
	C376.611420,228.694489 401.059052,237.482956 414.582550,256.368042 
	C428.028809,275.145142 428.470184,301.406036 415.380859,319.906677 
z"/>
<path fill="#65A192" opacity="1.000000" stroke="none" 
	d="
M172.386200,254.945160 
	C166.054581,253.353333 160.129120,250.990051 153.981735,249.986938 
	C125.688423,245.370087 99.967194,261.433838 91.289536,288.735107 
	C90.990822,289.674896 90.587112,290.581299 89.963165,291.767517 
	C90.526909,284.716339 90.048950,276.944031 92.412895,270.162292 
	C104.609001,235.173950 146.723541,221.987900 177.224228,243.099548 
	C178.837830,244.216461 180.609879,245.104492 182.665131,246.155273 
	C179.578110,249.074387 176.134140,251.937271 172.386200,254.945160 
z"/>
<path fill="#65A192" opacity="1.000000" stroke="none" 
	d="
M190.341248,321.879578 
	C188.041565,321.705170 185.959244,321.063904 183.871948,321.047363 
	C171.088394,320.945953 158.303543,321.021973 145.519470,320.961823 
	C140.178177,320.936707 136.260193,318.321411 134.124954,313.523804 
	C132.310867,309.447784 132.488037,305.433563 136.568054,302.125793 
	C140.297226,302.999237 143.690186,304.800690 147.115967,304.865509 
	C163.817734,305.181427 180.528305,305.033325 197.671829,305.505615 
	C196.060577,310.632904 194.013245,315.304047 191.965912,319.975159 
	C191.496048,320.550598 191.026184,321.126038 190.341248,321.879578 
z"/>
<path fill="#4C5667" opacity="1.000000" stroke="none" 
	d="
M289.426300,292.901947 
	C289.055847,288.577820 289.010071,284.175995 288.857483,279.308167 
	C288.750641,278.842102 288.781219,278.865509 289.021820,278.742615 
	C289.415985,278.287201 289.569550,277.954681 289.723145,277.622162 
	C302.996613,264.779541 316.270081,251.936935 329.739410,238.904785 
	C330.639404,240.668350 331.813202,242.968460 332.747681,245.811401 
	C328.706085,251.257172 324.903778,256.160095 320.856750,261.295532 
	C319.132538,264.039429 317.653046,266.550812 316.173584,269.062225 
	C314.307129,270.354279 312.250061,271.441925 310.607300,272.973877 
	C303.588531,279.519196 296.692078,286.195679 289.426300,292.901947 
z"/>
<path fill="#67A394" opacity="1.000000" stroke="none" 
	d="
M376.782837,298.170441 
	C381.645355,301.723114 382.208710,307.355743 378.503937,311.973572 
	C374.215820,317.318573 366.887817,318.556000 362.143158,314.460907 
	C360.295105,312.865814 358.639954,310.805023 357.533997,308.632111 
	C350.963470,295.723053 344.579651,282.718903 338.254028,269.107300 
	C340.000061,267.613953 341.625153,266.760040 343.250244,265.906128 
	C348.029755,274.940552 352.796143,283.981964 357.592621,293.007355 
	C362.014221,301.327271 368.362946,303.111725 376.782837,298.170441 
z"/>
<path fill="#68A294" opacity="1.000000" stroke="none" 
	d="
M215.898895,251.010864 
	C221.285660,246.371887 226.672440,241.732910 232.521042,236.696198 
	C239.681534,250.428024 246.626038,263.605560 253.310623,276.913696 
	C253.710648,277.710052 252.349197,280.047394 251.229385,280.762207 
	C250.158142,281.446045 248.332550,280.948120 246.257462,280.608185 
	C241.297394,271.626709 236.918381,263.006653 232.450378,254.211441 
	C228.193771,257.098358 224.565109,259.559387 220.712280,262.015381 
	C220.488098,262.010376 220.043854,261.944885 219.976166,261.584717 
	C218.571960,257.820007 217.235428,254.415451 215.898895,251.010864 
z"/>
<path fill="#68A394" opacity="1.000000" stroke="none" 
	d="
M266.423615,249.386642 
	C263.618134,244.171371 260.812653,238.956085 257.758423,233.278442 
	C271.862152,233.278442 285.186310,233.278442 299.936554,233.278442 
	C294.056610,239.059677 289.028717,244.003143 283.222778,249.060547 
	C277.104370,249.245193 271.763977,249.315918 266.423615,249.386642 
z"/>
<path fill="#465162" opacity="1.000000" stroke="none" 
	d="
M192.321152,320.192993 
	C194.013245,315.304047 196.060577,310.632904 198.145493,305.589447 
	C206.142410,305.151550 214.101730,305.085999 222.527054,305.083069 
	C221.646103,310.122650 220.299164,315.099579 218.873169,320.442017 
	C218.794098,320.807495 218.408508,320.908875 218.216797,320.963348 
	C209.575516,320.815491 201.125946,320.613129 192.321152,320.192993 
z"/>
<path fill="#76C1AE" opacity="1.000000" stroke="none" 
	d="
M220.936462,262.020416 
	C224.565109,259.559387 228.193771,257.098358 232.450378,254.211441 
	C236.918381,263.006653 241.297394,271.626709 245.836334,280.546661 
	C239.010803,280.898346 232.025360,280.950104 224.611847,280.518738 
	C223.101349,274.030579 222.018906,268.025482 220.936462,262.020416 
z"/>
<path fill="#475263" opacity="1.000000" stroke="none" 
	d="
M215.582657,251.104034 
	C217.235428,254.415451 218.571960,257.820007 219.883545,261.921265 
	C213.264114,268.069183 206.669586,273.520386 200.018158,278.584351 
	C198.965927,274.197357 197.970581,270.197571 196.975220,266.197815 
	C203.072296,261.197601 209.169357,256.197388 215.582657,251.104034 
z"/>
<path fill="#4F5E73" opacity="1.000000" stroke="none" 
	d="
M200.075058,278.971588 
	C206.669586,273.520386 213.264114,268.069183 219.951233,262.281433 
	C220.043854,261.944885 220.488098,262.010376 220.712280,262.015381 
	C222.018906,268.025482 223.101349,274.030579 224.153824,280.465363 
	C216.416275,280.914001 208.708679,280.932922 200.539047,280.564911 
	C200.076370,279.775818 200.075714,279.373718 200.075058,278.971588 
z"/>
<path fill="#5A887C" opacity="1.000000" stroke="none" 
	d="
M343.169373,265.553253 
	C341.625153,266.760040 340.000061,267.613953 338.182068,268.756592 
	C337.989136,269.045258 337.496613,268.998901 337.178375,268.629517 
	C334.627197,263.655945 332.394226,259.051758 330.102112,254.325623 
	C326.530792,256.998932 323.816132,259.030975 321.101471,261.063019 
	C324.903778,256.160095 328.706085,251.257172 332.787354,246.166153 
	C336.407043,252.385498 339.747742,258.792938 343.169373,265.553253 
z"/>
<path fill="#7FC6B4" opacity="1.000000" stroke="none" 
	d="
M266.538025,249.730499 
	C271.763977,249.315918 277.104370,249.245193 282.942810,249.225037 
	C279.957855,252.936554 276.474823,256.597473 272.245850,261.042480 
	C270.135620,256.904572 268.394012,253.489471 266.538025,249.730499 
z"/>
<path fill="#68A394" opacity="1.000000" stroke="none" 
	d="
M195.040070,280.825897 
	C190.128479,280.825897 185.216888,280.825897 179.091049,280.825897 
	C183.332169,277.259674 186.859924,274.293274 190.731232,271.571533 
	C192.396545,274.819397 193.718307,277.822632 195.040070,280.825897 
z"/>
<path fill="#5A887C" opacity="1.000000" stroke="none" 
	d="
M195.456345,280.892151 
	C193.718307,277.822632 192.396545,274.819397 191.044220,271.460510 
	C192.802460,269.538971 194.591248,267.973053 196.677643,266.302490 
	C197.970581,270.197571 198.965927,274.197357 200.018158,278.584351 
	C200.075714,279.373718 200.076370,279.775818 200.082932,280.479614 
	C198.683441,280.840332 197.278030,280.899384 195.456345,280.892151 
z"/>
<path fill="#67A293" opacity="1.000000" stroke="none" 
	d="
M289.464844,277.745789 
	C289.569550,277.954681 289.415985,278.287201 289.010437,278.747986 
	C288.907806,278.540619 289.057159,278.204987 289.464844,277.745789 
z"/>
<path fill="#65A192" opacity="1.000000" stroke="none" 
	d="
M320.856750,261.295532 
	C323.816132,259.030975 326.530792,256.998932 330.102112,254.325623 
	C332.394226,259.051758 334.627197,263.655945 336.931824,268.609467 
	C329.200684,277.113678 322.709290,286.203247 321.773773,297.723969 
	C321.196167,304.837494 322.453705,312.100067 322.880554,319.711700 
	C313.103668,306.788849 311.272186,291.934631 314.508911,276.128448 
	C314.941101,274.017731 315.538727,271.940887 316.116669,269.455292 
	C317.653046,266.550812 319.132538,264.039429 320.856750,261.295532 
z"/>
</svg>